# xmcd CD database file generated by Grip 3.3.1
# 
# Track frame offsets:
#       150
#       16583
#       35854
#       53181
#       83784
#       114021
#       131919
#       153731
#       181086
#       206022
#       229364
#       254687
#       274072
# 
# Disc length: 3835 seconds
# 
# Revision: 1
# Processed by: cddbd v1.5.1PL2 Copyright (c) Steve Scherf et al.
# Submitted via: Grip 3.3.1
# 
DISCID=b40ef90d
DTITLE=Kurt Ostbahn and Die Kombo - Höchste Zeit - Ein Abend im Gasthaus 
DTITLE=Quell
DYEAR=2003
DGENRE=Rock and Roll
TTITLE0=I brauch kan Dokta
TTITLE1=(Heit loss i) Anschreibm
TTITLE2=Fia de Hoa
TTITLE3=6 x fia nix
TTITLE4=So im Eck
TTITLE5=Gold and Silber
TTITLE6=Gschichtln
TTITLE7=(No a) Defekt
TTITLE8=Nix wie unguad
TTITLE9=(Aller-)Höchste Zeit
TTITLE10=Na, so wirst ned oid
TTITLE11=A Haus mitanand
TTITLE12=Wenn der Herbst langsam näherrückt
EXTD=Promotion Version as of November 2005. Regular Release scheduled 
EXTD=for 2nd of December 2005
EXTT0=
EXTT1=
EXTT2=
EXTT3=
EXTT4=
EXTT5=
EXTT6=
EXTT7=
EXTT8=
EXTT9=
EXTT10=
EXTT11=
EXTT12=
PLAYORDER=
